<svg width="36" height="36" viewBox="0 0 36 36" fill="none" xmlns="http://www.w3.org/2000/svg">
<path d="M10.7046 29.9241V13.7816H5.31753V29.9241H10.7052H10.7046ZM8.01219 11.578C9.89038 11.578 11.0597 10.3384 11.0597 8.78934C11.0245 7.20496 9.89038 6 8.04791 6C6.20417 6 5 7.20496 5 8.7892C5 10.3383 6.16888 11.5778 7.97689 11.5778H8.01177L8.01219 11.578ZM13.6864 29.9241H19.0731V20.9104C19.0731 20.4285 19.1082 19.9455 19.2505 19.6013C19.6398 18.637 20.5261 17.6388 22.0147 17.6388C23.9634 17.6388 24.7435 19.119 24.7435 21.2892V29.9241H30.13V20.6685C30.13 15.7104 27.4727 13.4031 23.9286 13.4031C21.0228 13.4031 19.7467 15.0207 19.0376 16.1225H19.0735V13.7822H13.6867C13.757 15.2965 13.6863 29.9246 13.6863 29.9246L13.6864 29.9241Z" fill="#EDDCB6"/>
</svg>
